<svg xmlns="http://www.w3.org/2000/svg" xmlns:xlink="http://www.w3.org/1999/xlink" viewBox="0 0 630 70" width="630" height="70">
<svg x="10" y="10" width="50" height="50" viewBox="0 0 128 128" overflow="visible"><path fill="#f90" d="M108.59 26.148c-1.852 0-3.622.211-5.305.715-1.684.504-3.117 1.223-4.379 2.188a10.829 10.829 0 0 0-3.031 3.453c-.757 1.348-1.137 2.906-1.137 4.676 0 2.187.716 4.25 2.106 6.105 1.386 1.895 3.66 3.324 6.734 4.293l6.106 1.895c2.062.675 3.496 1.391 4.254 2.191.757.801 1.136 1.765 1.136 2.945 0 1.726-.758 3.074-2.191 4-1.43.925-3.492 1.391-6.145 1.391-1.687 0-3.328-.168-5.011-.504a23.102 23.102 0 0 1-4.633-1.476c-.421-.168-.801-.336-1.051-.418a2.357 2.357 0 0 0-.758-.13c-.634 0-.969.423-.969 1.305v2.149a2.919 2.919 0 0 0 .254 1.18c.168.38.629.8 1.305 1.18 1.094.628 2.734 1.179 4.84 1.683 2.105.504 4.297.758 6.484.758 2.15 0 4.129-.297 6.024-.883 1.808-.551 3.367-1.309 4.672-2.36 1.304-1.01 2.316-2.273 3.074-3.707.714-1.429 1.094-3.07 1.094-4.882 0-2.188-.633-4.168-1.938-5.895-1.304-1.727-3.491-3.074-6.523-4.043l-5.98-1.895c-2.23-.713-3.79-1.516-4.634-2.316-.84-.797-1.261-1.808-1.261-2.988 0-1.726.671-2.95 1.98-3.746 1.305-.801 3.199-1.18 5.598-1.18 2.988 0 5.683.547 8.086 1.64.714.337 1.261.508 1.597.508.633 0 .969-.463.969-1.347v-1.98c0-.59-.125-1.051-.379-1.391-.25-.378-.672-.715-1.262-1.051-.422-.254-1.011-.504-1.77-.758a32.528 32.528 0 0 0-2.398-.676c-.886-.168-1.769-.336-2.738-.46a21.347 21.347 0 0 0-2.82-.169zm-86.822.082c-2.316 0-4.508.254-6.57.801-2.063.505-3.831 1.137-5.303 1.895-.59.297-.97.59-1.18.883-.211.296-.293.8-.293 1.476v2.063c0 .882.293 1.304.883 1.304.168 0 .378-.043.674-.125.293-.086.796-.254 1.472-.547a33.416 33.416 0 0 1 4.547-1.433A19.176 19.176 0 0 1 20.547 32c3.242 0 5.513.633 6.863 1.938 1.304 1.303 1.98 3.534 1.98 6.734v3.074c-1.683-.379-3.283-.715-4.843-.926-1.558-.21-3.031-.336-4.461-.336-4.34 0-7.75 1.094-10.316 3.286-2.571 2.187-3.832 5.093-3.832 8.671 0 3.368 1.05 6.063 3.113 8.086 2.066 2.02 4.887 3.032 8.422 3.032 4.97 0 9.097-1.938 12.379-5.813a34.153 34.153 0 0 0 1.304 2.484 13.28 13.28 0 0 0 1.516 1.98c.422.38.844.59 1.266.59.334 0 .714-.128 1.093-.378l2.653-1.77c.546-.42.8-.843.8-1.261a1.86 1.86 0 0 0-.293-.97 22.469 22.469 0 0 1-1.347-3.03c-.297-.925-.465-2.19-.465-3.75h-.086V40c0-4.633-1.176-8.086-3.492-10.36-2.36-2.273-6.025-3.41-11.033-3.41zm19.58 1.012c-.676 0-1.012.379-1.012 1.051 0 .297.129.844.379 1.687l9.894 32.547c.254.8.547 1.387.887 1.641.336.297.84.422 1.598.422h3.62c.759 0 1.347-.125 1.684-.422.34-.293.591-.84.801-1.684l6.485-27.117 6.527 27.16c.168.84.46 1.387.8 1.684.337.292.883.422 1.684.422h3.621c.715 0 1.262-.167 1.598-.422.34-.253.633-.8.887-1.64L90.949 30.02c.168-.46.25-.797.293-1.051.043-.254.086-.466.086-.676 0-.715-.379-1.05-1.055-1.05H86.36c-.757 0-1.308.166-1.644.421-.293.25-.59.8-.84 1.64L76.59 57.517l-6.653-28.211c-.166-.8-.464-1.39-.8-1.64-.336-.298-.884-.423-1.684-.423h-3.367c-.758 0-1.348.167-1.688.422-.335.25-.588.8-.796 1.64l-6.57 27.876-7.075-27.875c-.25-.8-.504-1.39-.84-1.64-.297-.298-.844-.423-1.644-.423h-4.125zM21.64 47.496a31.816 31.816 0 0 1 3.96.25 34.401 34.401 0 0 1 3.872.719v1.765c0 1.435-.168 2.653-.422 3.665-.25 1.01-.758 1.895-1.43 2.695-1.137 1.262-2.484 2.187-4 2.695-1.516.504-2.949.758-4.336.758-1.937 0-3.41-.508-4.422-1.559-1.054-1.01-1.558-2.484-1.558-4.464 0-2.106.675-3.704 2.062-4.84 1.391-1.137 3.454-1.684 6.274-1.684zM118 73.348c-4.432.063-9.664 1.052-13.621 3.832-1.223.883-1.012 2.062.336 1.894 4.508-.547 14.44-1.726 16.21.547 1.77 2.23-1.976 11.62-3.663 15.79-.504 1.26.59 1.769 1.726.8 7.41-6.231 9.348-19.242 7.832-21.137-.757-.925-4.388-1.79-8.82-1.726zM1.63 75.859c-.926.116-1.347 1.236-.368 2.121 16.508 14.902 38.359 23.872 62.613 23.872 17.305 0 37.43-5.43 51.281-15.66 2.273-1.689.298-4.254-2.02-3.204-15.533 6.57-32.421 9.77-47.788 9.77-22.778 0-44.8-6.273-62.653-16.633-.39-.231-.755-.304-1.064-.266z"/></svg>
<svg x="80" y="10" width="50" height="50" viewBox="0 0 128 128" overflow="visible"><defs><path id="go-go-original-a" d="M18.8 1h90.5v126H18.8z"/></defs><clipPath id="go-go-original-b"><use xlink:href="#go-go-original-a" overflow="visible"/></clipPath><path fill-rule="evenodd" clip-rule="evenodd" fill="#F6D2A2" d="M21.1 68.7c.2 3.5 3.7 1.9 5.3.8 1.5-1.1 2-.2 2.1-2.3.1-1.4.2-2.7.2-4.1-2.3-.2-4.8.3-6.7 1.7-.9.7-2.8 3-.9 3.9" clip-path="url(#go-go-original-b)"/><path d="M23 71.2c-.7 0-2-.3-2.2-2.3-.6-.4-.8-.9-.8-1.2-.1-1.2 1.2-2.6 1.9-3.1 1.6-1.2 3.7-1.8 5.9-1.8h1.3v.3c.1 1.1 0 2.2-.1 3.2 0 .3 0 .6-.1.9-.1 1.5-.4 1.7-1.1 2-.3.1-.6.2-1.1.6-.5.3-2.2 1.4-3.7 1.4zm4.8-7.8c-2.1 0-4 .6-5.5 1.7-.7.5-1.7 1.7-1.6 2.5 0 .3.2.6.6.8l.2.1v.2c.1 1.6.9 1.8 1.5 1.8 1 0 2.4-.7 3.3-1.3.6-.4 1-.5 1.3-.6.5-.2.6-.2.7-1.4 0-.3 0-.6.1-.9.1-.9.1-1.9.1-2.8-.3-.1-.5-.1-.7-.1z" clip-path="url(#go-go-original-b)"/><path fill-rule="evenodd" clip-rule="evenodd" fill="#C6B198" d="M21.1 68.7c.5-.2 1.1-.3 1.4-.8" clip-path="url(#go-go-original-b)"/><path d="M21.1 69c-.1 0-.3-.1-.3-.2-.1-.2 0-.4.2-.4.1 0 .2-.1.2-.1.4-.2.8-.3 1-.6.1-.1.3-.2.5-.1.1.1.2.3.1.5-.4.5-.9.7-1.3.8l-.2.1h-.2z" clip-path="url(#go-go-original-b)"/><path fill-rule="evenodd" clip-rule="evenodd" fill="#6AD7E5" d="M29.3 26.4c-13.6-3.8-3.5-21.1 7.4-14l-7.4 14z" clip-path="url(#go-go-original-b)"/><path d="M29.5 26.8l-.3-.1c-7-2-6.9-7-6.7-8.5.5-3.8 4.1-7.8 8.9-7.8 1.9 0 3.7.6 5.5 1.8l.3.2-7.7 14.4zm1.9-15.7c-4.5 0-7.8 3.7-8.3 7.2-.5 3.6 1.7 6.4 6 7.7l7.1-13.5c-1.5-.9-3.1-1.4-4.8-1.4z" clip-path="url(#go-go-original-b)"/><path fill-rule="evenodd" clip-rule="evenodd" fill="#6AD7E5" d="M89.6 11.1c10.7-7.5 20.5 9.5 8 13.8l-8-13.8z" clip-path="url(#go-go-original-b)"/><path d="M97.5 25.3L89.2 11l.3-.2c1.9-1.3 3.8-2 5.7-2 4.6 0 7.9 3.8 8.6 7.5.3 1.5.6 6.6-6 8.8l-.3.2zm-7.4-14l7.7 13.3c3.9-1.4 5.9-4.4 5.3-8-.6-3.4-3.7-6.9-7.9-6.9-1.7-.1-3.4.4-5.1 1.6z" clip-path="url(#go-go-original-b)"/><path fill-rule="evenodd" clip-rule="evenodd" fill="#F6D2A2" d="M92 112.3c2.7 1.7 7.7 6.8 3.6 9.3-3.9 3.6-6.1-4-9.6-5 1.5-2 3.4-3.9 6-4.3" clip-path="url(#go-go-original-b)"/><path d="M93.5 122.9c-1.6 0-3-1.6-4.2-3.1-1.1-1.2-2.2-2.5-3.4-2.9l-.5-.1.3-.4c1.2-1.7 3.2-3.9 6.2-4.4h.1l.1.1c1.7 1.1 5.4 4.2 5.3 7.1 0 1.1-.6 2-1.7 2.7-.7.7-1.4 1-2.2 1zm-7-6.5c1.2.5 2.2 1.8 3.2 2.9 1.2 1.5 2.4 2.8 3.7 2.8.6 0 1.2-.3 1.8-.9h.1c.9-.6 1.4-1.3 1.4-2.2 0-2.3-2.9-5.2-4.9-6.5-1.8.5-3.6 1.7-5.3 3.9zm9.1 5.5c-.1 0-.2-.1-.3-.2-.2-.4-.4-.9-.5-1.3-.3-.8-.6-1.6-1.2-2.2-.1-.1-.1-.3 0-.5.1-.1.3-.1.5 0 .7.7 1.1 1.6 1.4 2.5l.5 1.2c.1.2 0 .4-.1.5h-.3z" clip-path="url(#go-go-original-b)"/><path fill-rule="evenodd" clip-rule="evenodd" fill="#F6D2A2" d="M43.2 118.1c-3.2.5-5 3.4-7.7 4.9-2.5 1.5-3.5-.5-3.7-.9-.4-.2-.4.2-1-.4-2.3-3.7 2.4-6.4 4.9-8.2 3.5-.8 5.7 2.2 7.5 4.6" clip-path="url(#go-go-original-b)"/><path d="M33.8 123.8c-1.3 0-2-1.1-2.2-1.5h-.1c-.3 0-.5-.1-.9-.5v-.1c-2.2-3.5 1.6-6.2 4.1-8l.9-.6h.2c.4-.1.7-.1 1.1-.1 3 0 4.9 2.6 6.5 4.7l.5.7-.6.1c-1.9.3-3.3 1.5-4.7 2.7-.9.8-1.8 1.5-2.8 2.1-.8.3-1.4.5-2 .5zm-2.2-2.1c.1 0 .2 0 .4.1h.1l.1.1c.2.3.7 1.2 1.7 1.2.5 0 1-.2 1.5-.5 1-.5 1.9-1.3 2.7-2 1.3-1.1 2.7-2.3 4.5-2.8-1.5-2-3.3-4.2-5.8-4.2-.3 0-.6 0-.9.1l-.8.6c-2.6 1.8-5.8 4.1-3.9 7.1.1.2.2.3.4.3zm.2.7c-.2 0-.4-.2-.3-.4.1-1 .6-1.7 1.1-2.5.3-.4.5-.8.7-1.2.1-.2.3-.2.4-.2.2.1.2.3.2.4-.2.5-.5.9-.8 1.3-.5.7-.9 1.3-1 2.1 0 .4-.1.5-.3.5z" clip-path="url(#go-go-original-b)"/><path fill-rule="evenodd" clip-rule="evenodd" d="M29.9 21.7c-1.8-.9-3.1-2.2-2-4.3 1-1.9 2.9-1.7 4.7-.8l-2.7 5.1zm64.9-1.8c1.8-.9 3.1-2.2 2-4.3-1-1.9-2.9-1.7-4.7-.8l2.7 5.1z" clip-path="url(#go-go-original-b)"/><path fill-rule="evenodd" clip-rule="evenodd" fill="#F6D2A2" d="M107.1 68.2c-.2 3.5-3.7 1.9-5.3.8-1.5-1.1-2-.2-2.1-2.3-.1-1.4-.2-2.7-.2-4.1 2.3-.2 4.8.3 6.7 1.7 1 .8 2.8 3 .9 3.9" clip-path="url(#go-go-original-b)"/><path d="M105.3 70.7c-1.5 0-3.2-1.1-3.7-1.4-.5-.3-.8-.5-1.1-.6-.8-.3-1-.5-1.1-2 0-.3 0-.6-.1-.9-.1-1-.2-2.1-.1-3.2v-.3h1.3c2.2 0 4.3.6 5.9 1.8.7.5 2 1.9 1.9 3.1 0 .4-.2.9-.8 1.2-.2 2-1.5 2.3-2.2 2.3zM99.8 63c0 .9 0 1.9.1 2.8 0 .3 0 .6.1.9.1 1.2.2 1.2.7 1.4.3.1.7.3 1.3.6.9.6 2.3 1.3 3.3 1.3.6 0 1.4-.2 1.5-1.8V68l.2-.1c.4-.2.6-.4.6-.8.1-.8-.9-2-1.6-2.5-1.5-1.1-3.5-1.7-5.5-1.7-.2.1-.4.1-.7.1z" clip-path="url(#go-go-original-b)"/><path fill-rule="evenodd" clip-rule="evenodd" fill="#C6B198" d="M107.1 68.2c-.5-.2-1.1-.3-1.4-.8" clip-path="url(#go-go-original-b)"/><path d="M107.1 68.6h-.1l-.2-.1c-.5-.2-1-.3-1.3-.8-.1-.1-.1-.4.1-.5.1-.1.4-.1.5.1.2.3.6.4 1 .6.1 0 .2.1.2.1.2.1.3.3.2.4-.1.1-.3.2-.4.2z" clip-path="url(#go-go-original-b)"/><path fill-rule="evenodd" clip-rule="evenodd" fill="#6AD7E5" d="M62.8 4c13.6 0 26.3 1.9 33 15 6 14.6 3.8 30.4 4.8 45.9.8 13.3 2.5 28.6-3.6 40.9-6.5 12.9-22.7 16.2-36 15.7-10.5-.4-23.1-3.8-29.1-13.4-6.9-11.2-3.7-27.9-3.2-40.4.6-14.8-4-29.7.9-44.1C34.5 8.5 48.1 5.1 62.8 4" clip-path="url(#go-go-original-b)"/><path d="M63.3 121.9h-2.5c-4.1-.1-10.3-.8-16.4-3.3-5.9-2.4-10.2-5.8-13-10.3-5.6-9.1-4.6-21.6-3.7-32.7.2-2.8.4-5.4.5-7.9.2-5.2-.2-10.6-.7-15.7-.8-9.4-1.6-19.1 1.5-28.5 2.4-7 6.7-12 13.2-15.2 5.1-2.5 11.4-3.9 20.4-4.6C76 3.6 89.3 5.5 96 18.8c4.4 10.7 4.4 22.2 4.5 33.3 0 4.2 0 8.5.3 12.7.1 1.3.2 2.6.2 3.9.8 12.2 1.7 26-3.9 37.2-2.8 5.7-7.7 9.9-14.4 12.6-5.4 2.2-12.2 3.4-19.4 3.4zM62.8 4.3c-14.1 1.1-27.9 4.2-33 19.4-3.1 9.3-2.3 18.9-1.5 28.2.4 5.2.9 10.5.7 15.8-.1 2.5-.3 5.1-.5 7.9-.9 11-1.9 23.4 3.6 32.3 2.3 3.7 9.7 12.5 28.8 13.2h2.5c22.1 0 30.3-9.8 33.3-15.6 5.5-11 4.6-24.8 3.9-36.9-.1-1.3-.2-2.6-.2-3.9-.2-4.2-.3-8.5-.3-12.7-.1-11-.1-22.5-4.4-33.1C92.7 13 88.2 9 82 6.7c-6.4-2.1-13.6-2.4-19.2-2.4z" clip-path="url(#go-go-original-b)"/><path fill-rule="evenodd" clip-rule="evenodd" fill="#fff" d="M65.2 22.2c2.4 14.2 25.6 10.4 22.3-3.9-3-12.8-23.1-9.2-22.3 3.9" clip-path="url(#go-go-original-b)"/><path d="M76.2 31.5c-4.5 0-10.2-2.4-11.4-9.2-.2-3.2.8-6.1 2.9-8.3 2.3-2.5 5.8-3.9 9.4-3.9 4.2 0 9.2 2.2 10.6 8.3.8 3.4.2 6.4-1.7 8.8-2.1 2.6-5.8 4.3-9.8 4.3zm-10.7-9.3c.5 2.8 1.8 5 3.9 6.6 1.8 1.4 4.3 2.1 6.8 2.1 3.7 0 7.3-1.6 9.3-4.1 1.8-2.2 2.3-5.1 1.6-8.3-1.3-5.7-6-7.7-10-7.7-3.4 0-6.7 1.4-8.9 3.7-1.9 2-2.9 4.7-2.7 7.7z" clip-path="url(#go-go-original-b)"/><path fill-rule="evenodd" clip-rule="evenodd" fill="#fff" d="M37.5 24.5c3.2 12.3 22.9 9.2 22.2-3.2-.9-14.8-25.3-12-22.2 3.2" clip-path="url(#go-go-original-b)"/><path d="M48 32.7c-4.3 0-9.3-2.1-10.9-8.1-.7-3.5 0-6.7 2-9.1 2.2-2.7 5.8-4.3 9.7-4.3 5.2 0 10.7 3.1 11.1 10.1.2 2.9-.7 5.5-2.7 7.6-2.1 2.3-5.6 3.8-9.2 3.8zm.8-20.8c-3.7 0-7.1 1.5-9.2 4-1.9 2.3-2.5 5.2-1.8 8.5C39.2 30 44 32 48 32c3.4 0 6.7-1.3 8.8-3.6 1.8-1.9 2.7-4.4 2.5-7.1-.2-4.3-3.1-9.4-10.5-9.4z" clip-path="url(#go-go-original-b)"/><path fill-rule="evenodd" clip-rule="evenodd" fill="#fff" d="M68 39.2c0 1.8.4 3.9.1 5.9-.5.9-1.4 1-2.2 1.3-1.1-.2-2-.9-2.5-1.9-.3-2.2.1-4.4.2-6.6l4.4 1.3z" clip-path="url(#go-go-original-b)"/><path d="M65.9 46.8c-1.3-.2-2.3-1-2.8-2.1-.2-1.6-.1-3.1 0-4.6.1-.7.1-1.4.1-2.1v-.4l5.1 1.6v.2c0 .6.1 1.2.1 1.9.1 1.3.2 2.7 0 4v.1c-.4.8-1.1 1-1.8 1.3-.2-.1-.4 0-.7.1zm-2.2-2.4c.4.9 1.2 1.5 2.1 1.7.2-.1.4-.1.5-.2.6-.2 1.1-.4 1.4-.9.2-1.2.1-2.5 0-3.8 0-.6-.1-1.2-.1-1.7l-3.8-1.2c0 .6-.1 1.2-.1 1.7-.1 1.6-.2 3 0 4.4z" clip-path="url(#go-go-original-b)"/><path fill-rule="evenodd" clip-rule="evenodd" d="M46.3 22.5c0 2-1.5 3.6-3.3 3.6-1.8 0-3.3-1.6-3.3-3.6s1.5-3.6 3.3-3.6c1.8 0 3.3 1.6 3.3 3.6" clip-path="url(#go-go-original-b)"/><path fill-rule="evenodd" clip-rule="evenodd" fill="#fff" d="M45.2 23.3c0 .5-.4.9-.8.9s-.8-.4-.8-.9.4-.9.8-.9c.5 0 .8.4.8.9" clip-path="url(#go-go-original-b)"/><path fill-rule="evenodd" clip-rule="evenodd" d="M74.2 21.6c0 2-1.5 3.6-3.3 3.6-1.8 0-3.3-1.6-3.3-3.6s1.5-3.6 3.3-3.6c1.8 0 3.3 1.6 3.3 3.6" clip-path="url(#go-go-original-b)"/><path fill-rule="evenodd" clip-rule="evenodd" fill="#fff" d="M73.2 22.4c0 .5-.3.9-.8.9-.4 0-.8-.4-.8-.9s.3-.9.8-.9c.4 0 .8.4.8.9M58.4 39c-1.5 3.5.8 10.6 4.8 5.4-.3-2.2.1-4.4.2-6.6l-5 1.2z" clip-path="url(#go-go-original-b)"/><path d="M60.5 46.6c-.7 0-1.4-.4-1.9-1.2-1.1-1.6-1.3-4.6-.5-6.5l.1-.2 5.5-1.4v.4l-.1 2.2c-.1 1.5-.2 2.9 0 4.4v.1l-.1.1c-1 1.4-2 2.1-3 2.1zm-1.8-7.3c-.6 1.7-.4 4.4.5 5.7.4.6.8.9 1.3.9.7 0 1.5-.6 2.3-1.6-.2-1.5-.1-3 .1-4.4l.1-1.7-4.3 1.1z" clip-path="url(#go-go-original-b)"/><path fill-rule="evenodd" clip-rule="evenodd" fill="#F6D2A2" d="M58.9 32.2c-2.7.2-4.9 3.5-3.5 6 1.9 3.4 6-.3 8.6 0 3 .1 5.4 3.2 7.8.6 2.7-2.9-1.2-5.7-4.1-7l-8.8.4z" clip-path="url(#go-go-original-b)"/><path fill="#231F20" d="M69.7 40.2c-.9 0-1.8-.4-2.7-.8-.9-.4-1.9-.8-3-.8h-.3c-.8 0-1.7.3-2.7.7-1.1.4-2.2.7-3.2.7-1.2 0-2.1-.5-2.7-1.6-.7-1.2-.6-2.6.1-3.9.8-1.5 2.2-2.4 3.7-2.6l8.9-.4h.1c2.2.9 4.7 2.6 5.2 4.6.2 1-.1 2-.9 2.9-.8.9-1.6 1.2-2.5 1.2zM64.1 38c1.1 0 2.2.5 3.2.9.9.4 1.7.7 2.5.7.7 0 1.3-.3 1.9-.9.7-.7.9-1.5.8-2.3-.4-1.7-2.8-3.3-4.7-4.1l-8.7.4c-1.3.1-2.5 1-3.2 2.2-.6 1.1-.6 2.3-.1 3.3.5.9 1.1 1.3 2.1 1.3.9 0 1.9-.4 2.9-.7 1.1-.4 2-.7 3-.7 0-.2.1-.2.3-.1z" clip-path="url(#go-go-original-b)"/><path fill-rule="evenodd" clip-rule="evenodd" d="M58.6 32.1c-.2-4.7 8.8-5.3 9.8-1.4 1.1 4-9.4 4.9-9.8 1.4" clip-path="url(#go-go-original-b)"/></svg>
<svg x="150" y="10" width="50" height="50" viewBox="0 0 128 128" overflow="visible"><g fill-rule="evenodd" clip-rule="evenodd"><path fill="#386f9f" d="M51.834 23.017c3.756 0 7.512.058 11.263-.04.995-.026 2.78.797 2.7-1.271-.061-1.683-1.622-1.074-2.568-1.089-4.237-.067-8.488-.228-12.708.037-3.003.187-3.888-.953-3.511-3.707.13-.95.005-1.934.025-2.902.132-6.446 1.69-8.64 7.942-10.23 6.888-1.75 13.937-1.692 20.806-.184 6.175 1.356 8.74 6.16 8.428 10.604-.38 5.423-.086 10.893-.091 16.343-.009 6.853-3.55 10.49-10.459 10.585-5.69.078-11.387.14-17.074-.018-6.778-.19-11.75 5.44-11.784 11.82 0 .484.083.984-.013 1.451-.488 2.343 1.462 6.13-1.022 6.826-3.78 1.062-8.206 1.062-11.54-2.311-1.13-1.14-2.082-2.417-2.584-3.893-2.679-7.865-3.102-15.83-.58-23.818 1.572-4.986 5.848-8.087 11.145-8.176 3.874-.065 7.749-.013 11.623-.013l.002-.014zm6.902-11.12c-.162-1.903-1.185-3.292-3.296-3.35-2.309-.06-3.502 1.336-3.505 3.608-.002 2.106 1.145 3.455 3.241 3.516 2.303.067 3.418-1.36 3.56-3.774z"/><path fill="#ffcf46" d="M80.824 61.572c-4.24 0-8.482-.037-12.722.03-.955.012-2.557-.592-2.607 1.041-.056 1.852 1.663 1.37 2.755 1.381 4.24.053 8.484.098 12.723-.02 2.178-.06 3.067.357 3.23 2.925.737 11.625-4.308 12.63-13.613 14.745-5.338 1.213-11.061.57-16.325-1.788-4.353-1.947-7.024-4.753-6.687-10.007.334-5.186.39-10.439-.009-15.62-.48-6.253 3.41-10.852 10.975-10.854 5.09-.001 10.214-.389 15.26.075 7.215.662 12.872-5.592 13.12-12.864.01-.241-.052-.5.01-.724.636-2.235-1.626-5.557 1.4-6.686 4.573-1.705 9.73.087 12.066 3.557 2.945 4.369 3.343 9.51 3.819 14.53.515 5.411-1.003 10.505-3.276 15.386-1.544 3.31-4.14 4.91-7.757 4.915-4.12.003-8.239 0-12.36 0-.002-.008-.002-.015-.002-.022zm-1.104 10.8c-.453-2.066-1.385-3.476-3.785-3.535-2.496-.06-3.14 1.807-3.127 3.474.014 1.772.508 3.952 3.21 3.748 2.246-.172 3.341-1.563 3.702-3.687z"/><path fill="#386f9f" d="M14.129 114.849c0 2.582.117 5-.055 7.397-.074 1.034 1.066 2.98-1.103 2.978-1.912 0-2.403-1.522-2.342-3.361.117-3.51.034-7.027.034-10.54v-7.998c0-4.82 1.293-6.452 5.903-7.45 4.286-.932 7.654.511 9.386 4.263 1.732 3.753 1.866 7.62.133 11.438-1.708 3.762-4.854 5.166-8.884 4.051-.918-.25-1.845-.467-3.072-.778zm0-9.448c0 1.33.18 2.686-.037 3.98-.502 2.991 1.408 3.728 3.66 4.26 2.227.526 3.754-.421 4.647-2.383 1.501-3.29 1.753-6.683.613-10.162-1.012-3.092-3.349-3.454-6.077-3.07-2.694.383-3.059 2.215-2.824 4.48.1.955.018 1.93.018 2.895zM43.116 114.689c-1.845.48-3.447.992-5.087 1.3-3.59.671-6.248-1.3-7.183-4.894-1.16-4.448-.178-8.879-.148-13.317.013-2.023 1.885-1.234 3.18-2.318 0 4.75.018 8.85-.006 12.947-.013 2.058.519 3.75 2.465 4.835 2.148 1.198 3.91.057 5.78-.712 1.34-.551 1.173-1.676 1.175-2.746.01-3.872-.001-7.74.012-11.612.002-.955-.097-2.122 1.313-2.075 1.257.041 1.804.788 1.783 2.158-.091 6.407.09 12.823-.17 19.221-.197 4.838-3.61 7.793-8.52 8.01-.735.031-1.505.099-1.78-.813-.419-1.404.718-1.139 1.465-1.378 5.401-1.718 6.107-2.744 5.721-8.606zM65.94 98.064c1.429-.675 2.25-1.293 3.153-1.46 5.067-.937 8.95-.58 8.94 6.245-.007 3.515.002 7.031-.007 10.545-.002.984.061 1.942-1.406 2.027-1.547.092-1.887-.793-1.88-2.006.018-3.387.11-6.774.107-10.16-.002-2.63-.539-4.958-3.884-4.95-2.934.005-5.012 2.195-5.027 5.217a899.58 899.58 0 00.003 9.814c.003 1.162.028 2.181-1.652 2.085-1.513-.09-1.327-1.11-1.327-2.049-.01-8.6.032-17.209-.041-25.815-.013-1.508.582-2.444 1.92-2.508 1.888-.087 1.023 1.564 1.051 2.392.123 3.371.05 6.75.05 10.623zM81.93 105.775c-.191-6.715 2.994-10.3 8.76-10.092 2.894.106 5.065 1.39 6.466 3.89 2.475 4.422 2.14 8.846-.538 12.987-1.84 2.844-4.67 4.185-8.12 3.453-3.402-.72-6.066-3.783-6.548-7.353-.128-.945-.02-1.924-.02-2.885zm13.32.157c-.152-1.172-.125-2.806-.613-4.264-.667-2-1.883-3.61-4.364-3.72-2.503-.108-3.752 1.355-4.587 3.38-1.311 3.179-1.226 6.371.194 9.493.912 2.011 2.32 3.483 4.76 3.075 2.403-.401 3.821-1.976 4.312-4.313.223-1.059.187-2.168.298-3.65zM102.257 106.827c0-1.212-.023-2.422.004-3.628.056-2.325-.685-4.901 2.45-6.089 3.59-1.356 7.148-2.372 10.762-.273 1.352.786 1.85 2.214 1.864 3.73.037 4.231-.019 8.464.038 12.695.02 1.476-.368 2.214-2.027 2.174-1.818-.043-1.435-1.283-1.423-2.273.043-3.38.278-6.757.214-10.132-.084-4.25-2.416-5.983-6.389-4.94-1.648.434-2.678 1.234-2.597 3.274.161 3.982.037 7.978.052 11.967.004 1.156.021 2.18-1.647 2.083-1.528-.088-1.278-1.145-1.29-2.062-.028-2.176-.008-4.353-.011-6.526zM58.689 97.403c-.25.296-.46.76-.68.764-3.964.055-2.864 3.014-2.966 5.209-.097 2.045 0 4.1-.029 6.151-.03 2.038.147 3.932 2.627 4.473.711.154 1.035.564.887 1.274-.163.784-.788.753-1.407.745-2.85-.05-4.963-2.065-5.047-5.015-.086-3.014.031-6.035-.04-9.046-.037-1.43.706-3.255-1.6-3.822-.253-.061-.343-.778-.508-1.187 3.076-.965 1.8-3.618 2.222-5.631.2-.953 1.105-1.214 1.96-1.295.865-.082.872.618.9 1.203.114 2.32-1.087 5.425 3.184 5.256.143-.005.31.562.497.92z"/></g></svg>
<svg x="220" y="10" width="50" height="50" viewBox="0 0 128 128" overflow="visible"><g fill-rule="evenodd"><path d="M77.941 44.5v36.836L46.324 62.918V26.082zm0 0" fill="#5c4ee5"/><path d="M81.41 81.336l31.633-18.418V26.082L81.41 44.5zm0 0" fill="#4040b2"/><path d="M11.242 42.36L42.86 60.776V23.941L11.242 5.523zm0 0M77.941 85.375L46.324 66.957v36.82l31.617 18.418zm0 0" fill="#5c4ee5"/></g></svg>
<svg x="290" y="10" width="50" height="50" viewBox="0 0 128 128" overflow="visible"><path fill="#fff" d="M22.67 47h99.67v73.67H22.67z"/><path data-name="original" fill="#007acc" d="M1.5 63.91v62.5h125v-125H1.5zm100.73-5a15.56 15.56 0 017.82 4.5 20.58 20.58 0 013 4c0 .16-5.4 3.81-8.69 5.85-.12.08-.6-.44-1.13-1.23a7.09 7.09 0 00-5.87-3.53c-3.79-.26-6.23 1.73-6.21 5a4.58 4.58 0 00.54 2.34c.83 1.73 2.38 2.76 7.24 4.86 8.95 3.85 12.78 6.39 15.16 10 2.66 4 3.25 10.46 1.45 15.24-2 5.2-6.9 8.73-13.83 9.9a38.32 38.32 0 01-9.52-.1 23 23 0 01-12.72-6.63c-1.15-1.27-3.39-4.58-3.25-4.82a9.34 9.34 0 011.15-.73L82 101l3.59-2.08.75 1.11a16.78 16.78 0 004.74 4.54c4 2.1 9.46 1.81 12.16-.62a5.43 5.43 0 00.69-6.92c-1-1.39-3-2.56-8.59-5-6.45-2.78-9.23-4.5-11.77-7.24a16.48 16.48 0 01-3.43-6.25 25 25 0 01-.22-8c1.33-6.23 6-10.58 12.82-11.87a31.66 31.66 0 019.49.26zm-29.34 5.24v5.12H56.66v46.23H45.15V69.26H28.88v-5a49.19 49.19 0 01.12-5.17C29.08 59 39 59 51 59h21.83z"/></svg>
<svg x="360" y="10" width="50" height="50" viewBox="0 0 128 128" overflow="visible"><path d="m24.156 108.54c4.7344-2.7344 4.7422-11.582 0.019531-19.766-4.7266-8.1797-12.395-12.598-17.129-9.8672-4.7305 2.7344-4.7422 11.582-0.015625 19.766 4.7227 8.1836 12.391 12.602 17.125 9.8672z" fill="#f26e7e"/>
<path d="m120.98 98.684c4.7227-8.1797 4.7148-17.031-0.019531-19.762-4.7305-2.7344-12.398 1.6836-17.125 9.8633-4.7227 8.1836-4.7148 17.031 0.019531 19.766s12.402-1.6836 17.125-9.8672z" fill="#893390"/>
<path d="m56.418 127.19c4.7344-2.7344 4.7422-11.582 0.015625-19.766-4.7227-8.1836-12.391-12.598-17.125-9.8672-4.7344 2.7344-4.7422 11.582-0.015625 19.766 4.7227 8.1836 12.391 12.602 17.125 9.8672z" fill="#f26e7e"/>
<path d="m88.727 117.3c4.7227-8.1836 4.7148-17.031-0.019531-19.766-4.7344-2.7305-12.398 1.6875-17.125 9.8672-4.7227 8.1836-4.7148 17.031 0.019531 19.766 4.7305 2.7344 12.398-1.6836 17.125-9.8672z" fill="#893390"/>
<path d="m63.984 19.797c9.4492 0 17.109-4.4336 17.109-9.8984 0-5.4688-7.6602-9.8984-17.109-9.8984s-17.109 4.4297-17.109 9.8984c0 5.4648 7.6602 9.8984 17.109 9.8984z" fill="#f6bf29"/>
<path d="m24.145 71.254c4.7344-2.7344 4.7422-11.582 0.019531-19.766-4.7266-8.1797-12.395-12.598-17.125-9.8672-4.7344 2.7344-4.7422 11.582-0.019531 19.766 4.7227 8.1836 12.391 12.602 17.125 9.8672z" fill="#f26e7e"/>
<path d="m31.73 38.398c9.4492 0 17.109-4.4336 17.109-9.8984s-7.6602-9.8984-17.109-9.8984-17.109 4.4336-17.109 9.8984 7.6602 9.8984 17.109 9.8984z" fill="#f6bf29"/>
<path d="m120.96 61.406c4.7227-8.1797 4.7188-17.031-0.015626-19.762-4.7344-2.7344-12.402 1.6836-17.129 9.8633-4.7227 8.1836-4.7148 17.035 0.019532 19.766 4.7344 2.7344 12.402-1.6836 17.125-9.8672z" fill="#893390"/>
<path d="m96.281 38.398c9.4492 0 17.109-4.4336 17.109-9.8984s-7.6602-9.8984-17.109-9.8984-17.109 4.4336-17.109 9.8984 7.6602 9.8984 17.109 9.8984z" fill="#f6bf29"/>
<path d="m56.406 89.906c4.7344-2.7344 4.7422-11.582 0.019531-19.766-4.7266-8.1836-12.395-12.598-17.125-9.8672-4.7344 2.7344-4.7422 11.582-0.019531 19.766 4.7227 8.1836 12.391 12.602 17.125 9.8672z" fill="#f26e7e"/>
<path d="m88.707 80.027c4.7266-8.1797 4.7148-17.031-0.015625-19.762-4.7344-2.7344-12.402 1.6836-17.129 9.8633-4.7227 8.1836-4.7148 17.031 0.019531 19.766s12.402-1.6836 17.125-9.8672z" fill="#893390"/>
<path d="m63.984 57.043c9.4492 0 17.109-4.4336 17.109-9.8984 0-5.4688-7.6602-9.8984-17.109-9.8984s-17.109 4.4297-17.109 9.8984c0 5.4648 7.6602 9.8984 17.109 9.8984z" fill="#f6bf29"/></svg>
<svg x="430" y="10" width="50" height="50" viewBox="0 0 128 128" overflow="visible"><path fill="#326ce5" d="M63.556 1.912a8.51 8.44 0 0 0-3.26.826L15.795 24a8.51 8.44 0 0 0-4.604 5.725L.214 77.485a8.51 8.44 0 0 0 1.155 6.47 8.51 8.44 0 0 0 .484.672l30.8 38.296a8.51 8.44 0 0 0 6.653 3.176l49.394-.012a8.51 8.44 0 0 0 6.653-3.17l30.789-38.301a8.51 8.44 0 0 0 1.645-7.142l-10.996-47.76a8.51 8.44 0 0 0-4.604-5.726L67.682 2.738a8.51 8.44 0 0 0-4.126-.826z"/><path fill="#fff" d="M63.975 18.143v.01c-1.472.014-2.664 1.336-2.664 2.972 0 .028.005.052.005.074-.002.222-.012.49-.005.684.035.946.24 1.668.365 2.535.17 1.42.215 2.547.224 3.687l.036-.164a40.909 40.909 0 0 0-.118-2.394c.139 1.228.24 2.364.186 3.392-.015-.325-.061-.677-.066-.982l-.036.164c.003.347.096.79.069 1.123-.061.29-.291.495-.467.742l-.025.121c.173-.227.354-.444.46-.699-.134.423-.42.796-.707 1.094.08-.124.146-.262.24-.385l.026-.12c-.145.203-.227.457-.385.61l-.006.006-.064 1.12a34.702 34.702 0 0 0-4.797.736 34.279 34.279 0 0 0-17.398 9.935c-.296-.202-.8-.56-.95-.672l-.005-.005-.01.002c-.478.064-.95.207-1.57-.153-1.187-.8-2.271-1.907-3.584-3.24-.601-.637-1.037-1.246-1.754-1.861-.163-.141-.41-.33-.592-.473a3.193 3.193 0 0 0-1.87-.705c-.825-.028-1.62.294-2.14.947-.925 1.16-.628 2.933.658 3.96l.04.026c.174.143.39.326.552.446.762.561 1.457.849 2.21 1.293 1.594.984 2.91 1.798 3.956 2.779.402.427.474 1.19.53 1.525v.008l.847.754c-4.561 6.874-6.675 15.36-5.432 24.006l-1.103.324-.004.006c-.295.381-.712.972-1.135 1.147-1.366.43-2.908.588-4.77.783-.872.073-1.626.031-2.556.207-.205.04-.49.112-.713.164l-.023.006-.04.011c-1.58.383-2.6 1.837-2.27 3.272.327 1.435 1.873 2.306 3.464 1.963l.039-.006h.002c.02-.005.038-.015.05-.018.22-.048.496-.101.69-.154.913-.245 1.574-.603 2.393-.916 1.76-.632 3.218-1.16 4.637-1.365.582-.046 1.204.362 1.517.537l.008.004 1.152-.197c2.674 8.274 8.266 14.96 15.346 19.162l-.48 1.152.003.01c.174.45.364 1.057.237 1.492-.516 1.336-1.4 2.749-2.408 4.326-.488.728-.99 1.295-1.43 2.131-.107.201-.24.507-.342.717-.69 1.475-.184 3.177 1.143 3.816 1.335.643 2.99-.036 3.707-1.513l.007-.008v-.01c.1-.207.242-.478.329-.674.378-.866.505-1.607.77-2.441h-.003c.706-1.773 1.094-3.627 2.059-4.778.26-.31.688-.432 1.136-.552l.01-.004.6-1.084a34.436 34.436 0 0 0 24.556.062c.172.303.478.865.563 1.01l.004.006.008.004c.458.149.948.223 1.35.816.722 1.237 1.218 2.703 1.822 4.475.265.832.397 1.575.775 2.441.087.2.23.475.33.684.715 1.482 2.375 2.163 3.713 1.52 1.326-.64 1.832-2.34 1.143-3.815-.102-.21-.243-.518-.348-.719-.441-.836-.943-1.397-1.43-2.125-1.01-1.577-1.843-2.885-2.36-4.222-.213-.685.036-1.104.206-1.555l.006-.014-.01-.01a.834.834 0 0 1-.09-.168 6.23 6.23 0 0 1-.12-.29c-.08-.21-.16-.442-.224-.596 7.358-4.35 12.786-11.285 15.34-19.295.347.054.93.155 1.12.193l.01.002.009-.004c.402-.265.76-.606 1.475-.549 1.419.205 2.876.734 4.638 1.366.817.312 1.479.677 2.393.921.194.052.47.101.69.149.012.003.029.012.05.017h.002l.04.004c1.59.341 3.137-.528 3.464-1.963.327-1.435-.691-2.888-2.272-3.269-.227-.052-.551-.141-.775-.184-.93-.176-1.683-.132-2.557-.205-1.86-.195-3.402-.353-4.77-.783-.547-.213-.942-.872-1.138-1.148l-.006-.006-1.066-.31a34.42 34.42 0 0 0-.56-12.425 34.497 34.497 0 0 0-4.983-11.525c.278-.252.785-.701.932-.836l.007-.006v-.01c.044-.48.006-.97.495-1.494 1.045-.98 2.364-1.797 3.957-2.779.754-.444 1.454-.731 2.214-1.293.174-.128.408-.328.588-.473 1.286-1.026 1.584-2.798.658-3.959-.925-1.16-2.718-1.267-4.003-.242-.182.145-.43.332-.594.473-.717.618-1.16 1.226-1.76 1.863-1.313 1.335-2.398 2.446-3.586 3.246-.507.294-1.258.193-1.603.172h-.008l-1.004.719c-5.775-6.048-13.63-9.916-22.09-10.672a63.543 63.543 0 0 1-.064-1.174v-.008l-.006-.006c-.35-.333-.76-.61-.864-1.318v-.002c-.115-1.428.077-2.967.3-4.824.125-.867.332-1.59.366-2.535.009-.216-.005-.527-.005-.758 0-1.645-1.203-2.982-2.688-2.982zm-3.514 13.7a34.663 34.663 0 0 0-3.59.552 34.618 34.618 0 0 1 3.59-.551zm-4.781.823a34.262 34.262 0 0 0-3.711 1.133 34.208 34.208 0 0 1 3.71-1.133zm-4.825 1.564a34.262 34.262 0 0 0-3.496 1.666 34.216 34.216 0 0 1 3.496-1.666zM28.8 35.377c.142.02.28.048.418.086a3.168 3.168 0 0 0-.418-.086zm.943.283c.132.064.259.137.38.219a3.168 3.168 0 0 0-.38-.219zm16.549.848a34.262 34.262 0 0 0-3.176 2.14 34.228 34.228 0 0 1 3.176-2.14zm14.346 2.344-.787 13.93-.057.029-.002.013c-.002.05-.014.095-.02.143a2.348 2.348 0 0 1-.263.857c-.038.07-.076.141-.121.207a2.348 2.348 0 0 1-.69.662c-.07.045-.147.08-.222.118a2.348 2.348 0 0 1-.873.226c-.045.003-.088.014-.133.014-.05 0-.094-.022-.143-.026a2.334 2.334 0 0 1-.943-.304c-.045-.026-.094-.041-.137-.069l-.006.022.004-.022c-.044-.027-.102-.016-.144-.047l-.012-.01-.022.014-11.421-8.097c.093-.091.192-.174.287-.264a27.438 27.438 0 0 1 3.23-2.635c.237-.165.473-.332.715-.49a27.438 27.438 0 0 1 3.816-2.078c.24-.107.487-.204.73-.305a27.438 27.438 0 0 1 4.044-1.312c.12-.03.238-.067.36-.094.576-.13 1.162-.206 1.745-.299l.006-.025a28.076 28.076 0 0 1 .004 0l-.006.025c.355-.056.704-.14 1.06-.183zm6.726.002c.197.024.39.068.586.097a27.668 27.668 0 0 1 3.16.656c.412.111.82.23 1.225.36a27.668 27.668 0 0 1 3.033 1.168c.375.17.745.348 1.112.535a27.668 27.668 0 0 1 2.83 1.662c.344.23.68.47 1.015.717a27.668 27.668 0 0 1 2.496 2.074c.144.134.297.257.438.395l-11.346 8.044-.04-.015-.01.008c-.045.032-.094.045-.14.074a2.35 2.35 0 0 1-.882.334c-.077.012-.153.03-.23.033a2.35 2.35 0 0 1-.99-.176 2.34 2.34 0 0 1-.265-.127 2.35 2.35 0 0 1-.746-.65c-.05-.069-.088-.146-.13-.22a2.35 2.35 0 0 1-.288-.887c-.006-.055-.026-.103-.03-.159v-.011l-.011-.006zm-25.238.576a34.262 34.262 0 0 0-2.81 2.576 34.228 34.228 0 0 1 2.81-2.576zm50.916 8.14a34.483 34.483 0 0 1 1.522 2.594 34.478 34.478 0 0 0-1.522-2.594zm1.994 3.508c.488.993.927 2.01 1.317 3.045a34.478 34.478 0 0 0-1.317-3.045zm-54.576.69 10.43 9.328-.012.056.01.008c.94.817 1.07 2.23.293 3.203-.028.035-.068.057-.098.09a2.348 2.348 0 0 1-.986.65c-.043.015-.078.043-.121.055l-.014.002-.012.047-13.367 3.86c-.02-.185-.02-.37-.037-.555a27.432 27.432 0 0 1-.092-3.344c.013-.387.033-.773.063-1.158a27.432 27.432 0 0 1 .457-3.307c.08-.407.173-.812.273-1.215a27.432 27.432 0 0 1 .99-3.162c.14-.37.29-.734.448-1.097a27.432 27.432 0 0 1 1.51-2.987c.09-.156.17-.32.265-.474zm47.002.007c.097.158.176.324.27.483a27.774 27.774 0 0 1 1.53 3.01c.15.346.298.694.434 1.046a27.774 27.774 0 0 1 1.04 3.288c.045.175.104.346.144.523.69 3.002.86 5.999.578 8.896l-13.434-3.87-.011-.057-.014-.004c-.045-.012-.084-.034-.127-.049a2.35 2.35 0 0 1-.79-.455c-.058-.052-.116-.103-.17-.16a2.35 2.35 0 0 1-.491-.824c-.027-.078-.044-.158-.063-.239a2.35 2.35 0 0 1-.03-.892c.009-.049.01-.096.02-.145.01-.045.038-.084.05-.129a2.329 2.329 0 0 1 .599-.996c.034-.033.054-.076.09-.107l.01-.01-.006-.03 10.37-9.279zm9.228 3.305c.332.965.619 1.945.864 2.938a34.478 34.478 0 0 0-.864-2.938zm-34.824 6.752h4.262l2.65 3.314-.95 4.133-3.83 1.84-3.837-1.848-.953-4.132zm13.727 11.395c.18-.01.357.008.533.04l.014.003.023-.03 13.828 2.338c-.064.18-.147.351-.215.53a27.466 27.466 0 0 1-1.36 3.011c-.19.363-.386.721-.593 1.074a27.466 27.466 0 0 1-1.853 2.768c-.243.32-.492.633-.748.941a27.466 27.466 0 0 1-2.29 2.432c-.29.274-.588.54-.892.8a27.466 27.466 0 0 1-2.64 2.012c-.16.107-.31.225-.471.329l-5.365-12.967.015-.022-.004-.011c-.02-.045-.026-.092-.043-.137a2.351 2.351 0 0 1-.135-.889c.004-.081.006-.162.018-.242a2.351 2.351 0 0 1 .334-.89c.045-.072.098-.137.15-.204a2.351 2.351 0 0 1 .68-.578c.043-.024.079-.055.123-.076.289-.139.59-.218.89-.232zm-23.31.056.013.002c.03 0 .06.008.092.01a2.349 2.349 0 0 1 1.226.445c.07.05.133.101.196.158a2.349 2.349 0 0 1 .689 1.106c.008.03.022.059.03.09.11.479.065.98-.13 1.431l-.005.012.04.05-5.31 12.837c-.155-.1-.3-.212-.451-.315a27.58 27.58 0 0 1-2.64-2.011 27.508 27.508 0 0 1-.891-.803 27.58 27.58 0 0 1-2.272-2.408c-.26-.312-.513-.629-.76-.951a27.58 27.58 0 0 1-1.82-2.704 27.294 27.294 0 0 1-.627-1.123 27.58 27.58 0 0 1-1.346-2.947c-.07-.181-.154-.356-.22-.539l13.707-2.326.023.03.014-.005c.147-.027.294-.04.443-.039zm2.304 1.994a2.326 2.326 0 0 1 .02.344 2.286 2.286 0 0 0-.02-.344zm-.008.703a2.326 2.326 0 0 1-.1.4c.046-.13.077-.264.1-.4zm9.334 2.944c.058-.002.114.013.172.015a2.32 2.32 0 0 1 .752.159c.054.021.112.03.164.056v.002a2.31 2.31 0 0 1 1.043.99l.006.012h.053l6.757 12.213c-.276.092-.557.173-.836.256a28.056 28.056 0 0 1-.996.277c-.283.074-.564.15-.85.215-.124.029-.25.046-.376.072a27.542 27.542 0 0 1-4.18.561c-.28.016-.558.035-.838.043a27.542 27.542 0 0 1-4.32-.223c-.28-.036-.56-.085-.838-.13a27.542 27.542 0 0 1-4.055-.975c-.127-.041-.257-.072-.384-.115l6.742-12.188h.01l.007-.012c.026-.048.065-.085.094-.13a2.351 2.351 0 0 1 .606-.647c.083-.06.168-.115.26-.164a2.351 2.351 0 0 1 .85-.262c.054-.005.103-.023.157-.025zM52.297 98.69a34.413 34.413 0 0 0 3.758 1.137 34.352 34.352 0 0 1-3.758-1.137zm23.385.09c-1.07.381-2.156.709-3.258.983a34.56 34.56 0 0 0 3.258-.983zm-4.575 1.281a34.399 34.399 0 0 1-3.718.563 34.413 34.413 0 0 0 3.718-.563zm-13.937.016a34.413 34.413 0 0 0 3.898.572 34.358 34.358 0 0 1-3.898-.572zm8.91.649a34.36 34.36 0 0 1-3.851.005 34.413 34.413 0 0 0 3.85-.005z"/></svg>
<svg x="500" y="10" width="50" height="50" viewBox="0 0 128 128" overflow="visible"><defs><clipPath id="argocd-argocd-original-e"><path d="M42 41h44v51H42zm0 0"/></clipPath><clipPath id="argocd-argocd-original-d"><path d="M0 0h128v128H0z"/></clipPath><clipPath id="argocd-argocd-original-c"><path d="M0 0h128v128H0z"/></clipPath><clipPath id="argocd-argocd-original-f"><path d="M85.695 41.133l-2.55 58.238H44.887l-2.125-58.238"/></clipPath><clipPath id="argocd-argocd-original-b"><path d="M0 0h128v128H0z"/></clipPath><mask id="argocd-argocd-original-l"><g filter="url(#argocd-argocd-original-a)"><path d="M0 0h128v128H0z" fill-opacity=".251"/></g></mask><mask id="argocd-argocd-original-h"><g filter="url(#argocd-argocd-original-a)"><path d="M0 0h128v128H0z" fill-opacity=".22"/></g></mask><mask id="argocd-argocd-original-j"><g filter="url(#argocd-argocd-original-a)"><path d="M0 0h128v128H0z" fill-opacity=".502"/></g></mask><g id="argocd-argocd-original-i" clip-path="url(#argocd-argocd-original-b)"><path d="M58.488 30.508a2.974 2.974 0 11-5.948-.003 2.974 2.974 0 015.948.003zm0 0" fill="#fbdfc3"/></g><g id="argocd-argocd-original-g" clip-path="url(#argocd-argocd-original-c)"><path d="M84.422 65.363s2.55-22.531-.852-31.031C77.195 19.453 62.316 20.73 62.316 20.73s8.5 3.399 8.926 16.153c.426 8.926 0 22.105 0 22.105zm0 0" fill="#e34e3b"/></g><g id="argocd-argocd-original-k" clip-path="url(#argocd-argocd-original-d)"><path d="M83.145 90.867V87.47c-5.95 3.398-12.329 6.8-19.977 6.8-8.504 0-14.031-3.824-19.555-6.8l.422 3.398s6.38 6.805 19.555 6.805c12.328-.426 19.555-6.805 19.555-6.805zm0 0" fill="#e9654b"/></g><filter id="argocd-argocd-original-a" filterUnits="objectBoundingBox" x="0%" y="0%" width="100%" height="100%"><feColorMatrix in="SourceGraphic" values="0 0 0 0 1 0 0 0 0 1 0 0 0 0 1 0 0 0 1 0"/></filter></defs><path d="M44.035 89.594s-.847 2.55-2.125 3.824a3.844 3.844 0 01-2.972 1.277 49.946 49.946 0 01-6.38 1.274s2.977.426 6.38.851c1.273 0 1.273 0 2.124.426 2.126 0 2.973-1.277 2.973-1.277zm39.11 0s.851 2.55 2.125 3.824a3.858 3.858 0 002.976 1.277 49.8 49.8 0 006.375 1.274s-2.973.426-6.8.851c-1.274 0-1.274 0-2.126.426-2.55 0-2.976-1.277-2.976-1.277zm0 0" fill="#e9654b"/><path d="M109.926 47.508c0 25.355-20.555 45.91-45.91 45.91-25.356 0-45.91-20.555-45.91-45.91 0-25.352 20.554-45.906 45.91-45.906 25.355 0 45.91 20.554 45.91 45.906zm0 0" fill="#b6cfea"/><path d="M108.227 47.508c0 24.418-19.793 44.21-44.211 44.21-24.414 0-44.207-19.792-44.207-44.21C19.809 23.094 39.602 3.3 64.016 3.3c24.418 0 44.21 19.793 44.21 44.207zm0 0" fill="#e6f5f8"/><path d="M100.148 48.36c0 19.956-16.175 36.132-36.132 36.132-19.954 0-36.133-16.176-36.133-36.133 0-19.953 16.18-36.132 36.133-36.132 19.957 0 36.132 16.18 36.132 36.132zm0 0" fill="#d0e8f0"/><path d="M42.762 65.363s2.976 48.035 2.976 48.887c0 .422.426 1.273-1.703 2.125-2.125.848-8.926 2.55-8.926 2.55h10.203c4.676 0 4.676-3.827 4.676-4.675 0-.852 1.274-19.129 1.274-19.129s.425 21.68.425 22.527c0 .852-.425 2.125-3.398 2.977-2.125.426-8.504 1.7-8.504 1.7h9.778c5.953 0 5.953-3.825 5.953-3.825l1.273-19.129s.426 19.129.426 21.254c0 1.7-1.274 2.977-5.953 3.824-2.973.852-6.801 1.703-6.801 1.703h11.055c5.523-.425 6.375-4.254 6.375-4.254l9.351-47.609zm0 0" fill="#ee794b"/><path d="M85.27 65.363s-2.973 48.035-2.973 48.887c0 .422-.426 1.273 1.7 2.125 2.124.848 8.925 2.55 8.925 2.55H82.719c-4.676 0-4.676-3.827-4.676-4.675 0-.852-1.273-19.129-1.273-19.129s-.426 21.68-.426 22.527c0 .852.426 2.125 3.402 2.977l8.5 1.7H78.47c-5.95 0-5.95-3.825-5.95-3.825l-1.277-19.129s-.426 19.129-.426 21.254c0 1.7 1.278 2.977 5.954 3.824 2.976.852 6.8 1.703 6.8 1.703H72.52c-5.528-.425-6.38-4.254-6.38-4.254L56.79 74.29zm.425-23.379c0 11.903-9.777 21.254-21.254 21.254-11.476 0-21.254-9.777-21.254-21.254 0-11.476 9.778-21.254 21.254-21.254 11.477 0 21.254 9.352 21.254 21.254zm0 0" fill="#ee794b"/><g clip-path="url(#argocd-argocd-original-e)"><g clip-path="url(#argocd-argocd-original-f)"><path d="M102.273 53.46c0 20.895-16.937 37.833-37.832 37.833-20.894 0-37.832-16.938-37.832-37.832 0-20.895 16.938-37.832 37.832-37.832 20.895 0 37.832 16.937 37.832 37.832zm0 0" fill="#ee794b"/></g></g><use xlink:href="#argocd-argocd-original-g" mask="url(#argocd-argocd-original-h)"/><use xlink:href="#argocd-argocd-original-i" mask="url(#argocd-argocd-original-j)"/><path d="M71.668 73.863c0 7.227-3.402 11.907-7.652 11.907s-7.653-5.528-7.653-12.754c0 0 3.403 6.8 8.078 6.8 4.676 0 7.227-5.953 7.227-5.953zm0 0" fill="#010101"/><path d="M71.668 73.863c0 4.68-3.402 7.227-7.652 7.227s-7.227-3.399-7.227-7.649c0 0 3.402 4.25 8.078 4.25 4.676 0 6.801-3.828 6.801-3.828zm0 0" fill="#fff"/><path d="M92.07 53.887c0 7.277-5.898 13.175-13.175 13.175-7.278 0-13.18-5.898-13.18-13.175 0-7.278 5.902-13.18 13.18-13.18 7.277 0 13.175 5.902 13.175 13.18zm-29.754 0c0 7.277-5.902 13.175-13.18 13.175-7.277 0-13.175-5.898-13.175-13.175 0-7.278 5.898-13.18 13.176-13.18 7.277 0 13.18 5.902 13.18 13.18zm0 0" fill="#e9654b"/><path d="M89.098 53.887c0 5.633-4.57 10.203-10.203 10.203-5.633 0-10.204-4.57-10.204-10.203 0-5.637 4.57-10.203 10.204-10.203 5.632 0 10.203 4.566 10.203 10.203zm-30.61 0c0 5.633-4.566 10.203-10.199 10.203-5.637 0-10.203-4.57-10.203-10.203a10.201 10.201 0 0110.203-10.203c5.633 0 10.2 4.566 10.2 10.203zm0 0" fill="#fff"/><path d="M51.262 52.61a2.975 2.975 0 11-5.95.003 2.975 2.975 0 015.95-.004zm30.609 0a2.976 2.976 0 11-5.951.001 2.976 2.976 0 015.951-.002zm0 0" fill="#010101"/><path d="M17.258 58.988a2.005 2.005 0 01-2.125-2.125V39.86a2.008 2.008 0 01.582-1.543 2.008 2.008 0 011.543-.582 2.005 2.005 0 012.125 2.125v17.004c.035.57-.18 1.133-.586 1.54a2.008 2.008 0 01-1.54.585zm92.668 0a2.003 2.003 0 01-1.54-.586 2.008 2.008 0 01-.585-1.539V39.86a2.011 2.011 0 01.586-1.543 2 2 0 011.539-.582 2 2 0 011.539.582c.41.407.62.97.586 1.543v17.004a1.994 1.994 0 01-.586 1.54 2.003 2.003 0 01-1.54.585zm0 0" fill="#b6cfea"/><path d="M51.688 13.504a2.125 2.125 0 11-4.25 0 2.125 2.125 0 014.25 0zM34.262 70.89a1.559 1.559 0 01-1.278-.425c-5.101-6.375-7.652-14.453-7.652-22.531a37.933 37.933 0 015.102-19.13 41.641 41.641 0 0113.601-13.6 1.873 1.873 0 012.13.425 1.874 1.874 0 01-.427 2.125 34.305 34.305 0 00-17.43 29.754 33.487 33.487 0 007.227 20.832c.426.426.426 1.7-.426 2.125-.425.426-.425.426-.847.426zm0 0" fill="#fff"/><use xlink:href="#argocd-argocd-original-k" mask="url(#argocd-argocd-original-l)"/></svg>
<svg x="570" y="10" width="50" height="50" viewBox="0 0 128 128" overflow="visible"><path fill="#1A1918" d="M126 64c0 34.2-27.8 62-62 62S2 98.2 2 64 29.8 2 64 2s62 27.8 62 62"/><path fill="#FFF" d="M65 39.9l16 39.6-24.1-19.1L65 39.9zm28.5 48.7L68.9 29.2c-.7-1.7-2.1-2.6-3.8-2.6-1.7 0-3.2.9-3.9 2.6L34 94.3h9.3L54 67.5l32 25.9c1.3 1 2.2 1.5 3.4 1.5 2.4 0 4.5-1.8 4.5-4.4.1-.5-.1-1.2-.4-1.9z"/></svg>
</svg>